<svg xmlns="http://www.w3.org/2000/svg" viewBox="0 0 24 24">
  <path fill="#232F3E" d="M6.166 16.518l-.001-.007c-.404-1.29-.404-4.035-.404-4.035s0-2.744.404-4.034c.222-.743.865-1.302 1.658-1.43C9.215 6.8 12 6.8 12 6.8s2.785 0 4.176.212c.793.128 1.436.687 1.658 1.43.404 1.29.404 4.034.404 4.034s0 2.745-.404 4.035c-.222.742-.865 1.301-1.658 1.43C14.785 18.153 12 18.153 12 18.153s-2.785 0-4.176-.205c-.793-.129-1.436-.688-1.658-1.43z"/>
  <path fill="#FF9900" d="M10.576 14.203V10.75l3.477 1.727-3.477 1.726z"/>
</svg>
