<svg xmlns="http://www.w3.org/2000/svg" viewBox="0 0 24 24">
  <path fill="#76B900" d="M2 12.5C2 7.8 5.9 4 10.6 4h.4v2.2h-.4C7.1 6.2 4.4 9 4.4 12.5S7.1 18.8 10.6 18.8h.4V21h-.4C5.9 21 2 17.2 2 12.5zM13 4h.4c4.7 0 8.6 3.8 8.6 8.5S18.1 21 13.4 21H13v-2.2h.4c3.5 0 6.2-2.8 6.2-6.3S16.9 6.2 13.4 6.2H13V4z"/>
  <path fill="#76B900" d="M10.6 9.3V7.8C7.8 8.3 5.8 10.7 5.8 13.5c0 2 1 3.8 2.6 4.9v-1.7c-.8-.8-1.3-2-1.3-3.2 0-1.9 1.3-3.6 3.5-4.2zM13.4 7.8v1.5c2.2.6 3.5 2.3 3.5 4.2 0 1.2-.5 2.4-1.3 3.2v1.7c1.6-1.1 2.6-2.9 2.6-4.9 0-2.8-2-5.2-4.8-5.7z"/>
  <rect fill="#76B900" x="11.2" y="4" width="1.6" height="17"/>
</svg>
